Normalized EMG Linear Envelopes
nRows=49
nColumns=17

endheader
time	        VM	        VL	        RF	       GRA	        TA	   ADDLONG	   SEMIMEM	      BFLH	        GM	        GL	       TFL	   GLUTMAX	   GLUTMED	      PIRI	    OBTINT	        QF	
4.5875	  0.727995	  0.338275	  0.206441	  0.172729	  0.208215	  0.185739	  0.593976	  0.519302	  0.724069	  0.344523	  0.058101	  0.718440	  0.000000	  0.000000	  0.000000	  0.000000	
4.588	  0.733564	  0.340456	  0.208604	  0.172760	  0.206721	  0.186704	  0.590674	  0.518385	  0.725530	  0.345897	  0.058655	  0.722260	  0.000000	  0.000000	  0.000000	  0.000000	
4.5885	  0.739052	  0.342621	  0.210751	  0.172810	  0.205244	  0.187671	  0.587390	  0.517507	  0.726944	  0.347284	  0.059206	  0.726052	  0.000000	  0.000000	  0.000000	  0.000000	
4.589	  0.744456	  0.344769	  0.212882	  0.172880	  0.203783	  0.188637	  0.584128	  0.516670	  0.728309	  0.348686	  0.059753	  0.729815	  0.000000	  0.000000	  0.000000	  0.000000	
4.5895	  0.749775	  0.346899	  0.214995	  0.172969	  0.202339	  0.189604	  0.580890	  0.515875	  0.729626	  0.350102	  0.060295	  0.733548	  0.000000	  0.000000	  0.000000	  0.000000	
4.59	  0.755006	  0.349009	  0.217090	  0.173078	  0.200912	  0.190570	  0.577681	  0.515120	  0.730893	  0.351534	  0.060832	  0.737247	  0.000000	  0.000000	  0.000000	  0.000000	
4.5905	  0.760148	  0.351100	  0.219166	  0.173206	  0.199502	  0.191535	  0.574504	  0.514408	  0.732112	  0.352982	  0.061364	  0.740912	  0.000000	  0.000000	  0.000000	  0.000000	
4.591	  0.765198	  0.353171	  0.221221	  0.173355	  0.198110	  0.192497	  0.571362	  0.513738	  0.733281	  0.354447	  0.061890	  0.744541	  0.000000	  0.000000	  0.000000	  0.000000	
4.5915	  0.770156	  0.355222	  0.223256	  0.173524	  0.196735	  0.193458	  0.568258	  0.513111	  0.734400	  0.355928	  0.062411	  0.748131	  0.000000	  0.000000	  0.000000	  0.000000	
4.592	  0.775020	  0.357250	  0.225268	  0.173712	  0.195377	  0.194416	  0.565196	  0.512526	  0.735470	  0.357428	  0.062925	  0.751681	  0.000000	  0.000000	  0.000000	  0.000000	
4.5925	  0.779788	  0.359257	  0.227257	  0.173921	  0.194037	  0.195371	  0.562180	  0.511985	  0.736490	  0.358945	  0.063432	  0.755187	  0.000000	  0.000000	  0.000000	  0.000000	
4.593	  0.784459	  0.361241	  0.229222	  0.174150	  0.192715	  0.196322	  0.559211	  0.511488	  0.737462	  0.360480	  0.063933	  0.758646	  0.000000	  0.000000	  0.000000	  0.000000	
4.5935	  0.789031	  0.363202	  0.231163	  0.174399	  0.191409	  0.197269	  0.556295	  0.511035	  0.738385	  0.362033	  0.064427	  0.762057	  0.000000	  0.000000	  0.000000	  0.000000	
4.594	  0.793503	  0.365139	  0.233078	  0.174668	  0.190121	  0.198213	  0.553435	  0.510625	  0.739260	  0.363604	  0.064913	  0.765415	  0.000000	  0.000000	  0.000000	  0.000000	
4.5945	  0.797871	  0.367052	  0.234968	  0.174956	  0.188850	  0.199152	  0.550635	  0.510259	  0.740088	  0.365194	  0.065391	  0.768718	  0.000000	  0.000000	  0.000000	  0.000000	
4.595	  0.802135	  0.368940	  0.236831	  0.175264	  0.187596	  0.200086	  0.547897	  0.509937	  0.740870	  0.366802	  0.065860	  0.771964	  0.000000	  0.000000	  0.000000	  0.000000	
4.5955	  0.806293	  0.370802	  0.238667	  0.175592	  0.186359	  0.201015	  0.545226	  0.509658	  0.741606	  0.368428	  0.066322	  0.775149	  0.000000	  0.000000	  0.000000	  0.000000	
4.596	  0.810340	  0.372639	  0.240475	  0.175938	  0.185139	  0.201939	  0.542625	  0.509424	  0.742297	  0.370073	  0.066775	  0.778271	  0.000000	  0.000000	  0.000000	  0.000000	
4.5965	  0.814276	  0.374449	  0.242255	  0.176304	  0.183936	  0.202857	  0.540096	  0.509234	  0.742942	  0.371736	  0.067218	  0.781327	  0.000000	  0.000000	  0.000000	  0.000000	
4.597	  0.818098	  0.376233	  0.244005	  0.176688	  0.182749	  0.203769	  0.537645	  0.509087	  0.743544	  0.373417	  0.067653	  0.784315	  0.000000	  0.000000	  0.000000	  0.000000	
4.5975	  0.821803	  0.377989	  0.245726	  0.177090	  0.181579	  0.204674	  0.535273	  0.508985	  0.744102	  0.375117	  0.068078	  0.787231	  0.000000	  0.000000	  0.000000	  0.000000	
4.598	  0.825389	  0.379718	  0.247415	  0.177511	  0.180426	  0.205572	  0.532986	  0.508926	  0.744616	  0.376834	  0.068494	  0.790072	  0.000000	  0.000000	  0.000000	  0.000000	
4.5985	  0.828854	  0.381418	  0.249073	  0.177948	  0.179288	  0.206464	  0.530786	  0.508910	  0.745089	  0.378568	  0.068901	  0.792835	  0.000000	  0.000000	  0.000000	  0.000000	
4.599	  0.832194	  0.383090	  0.250698	  0.178402	  0.178166	  0.207348	  0.528678	  0.508938	  0.745520	  0.380319	  0.069298	  0.795519	  0.000000	  0.000000	  0.000000	  0.000000	
4.5995	  0.835407	  0.384733	  0.252290	  0.178873	  0.177060	  0.208225	  0.526665	  0.509009	  0.745911	  0.382086	  0.069685	  0.798120	  0.000000	  0.000000	  0.000000	  0.000000	
4.6	  0.838491	  0.386345	  0.253847	  0.179359	  0.175970	  0.209095	  0.524751	  0.509122	  0.746262	  0.383868	  0.070062	  0.800636	  0.000000	  0.000000	  0.000000	  0.000000	
4.6005	  0.841445	  0.387927	  0.255369	  0.179861	  0.174895	  0.209956	  0.522937	  0.509277	  0.746574	  0.385666	  0.070430	  0.803066	  0.000000	  0.000000	  0.000000	  0.000000	
4.601	  0.844265	  0.389478	  0.256856	  0.180377	  0.173835	  0.210810	  0.521229	  0.509474	  0.746848	  0.387477	  0.070788	  0.805408	  0.000000	  0.000000	  0.000000	  0.000000	
4.6015	  0.846952	  0.390998	  0.258306	  0.180908	  0.172790	  0.211655	  0.519628	  0.509712	  0.747084	  0.389301	  0.071135	  0.807660	  0.000000	  0.000000	  0.000000	  0.000000	
4.602	  0.849501	  0.392484	  0.259719	  0.181451	  0.171760	  0.212492	  0.518137	  0.509989	  0.747282	  0.391137	  0.071472	  0.809821	  0.000000	  0.000000	  0.000000	  0.000000	
4.6025	  0.851913	  0.393938	  0.261096	  0.182008	  0.170745	  0.213319	  0.516759	  0.510306	  0.747444	  0.392984	  0.071799	  0.811888	  0.000000	  0.000000	  0.000000	  0.000000	
4.603	  0.854184	  0.395358	  0.262434	  0.182576	  0.169744	  0.214137	  0.515497	  0.510660	  0.747568	  0.394841	  0.072116	  0.813860	  0.000000	  0.000000	  0.000000	  0.000000	
4.6035	  0.856314	  0.396744	  0.263735	  0.183155	  0.168757	  0.214945	  0.514353	  0.511051	  0.747655	  0.396707	  0.072423	  0.815737	  0.000000	  0.000000	  0.000000	  0.000000	
4.604	  0.858300	  0.398096	  0.264997	  0.183744	  0.167784	  0.215742	  0.513328	  0.511479	  0.747707	  0.398581	  0.072719	  0.817515	  0.000000	  0.000000	  0.000000	  0.000000	
4.6045	  0.860140	  0.399411	  0.266221	  0.184342	  0.166826	  0.216528	  0.512426	  0.511942	  0.747723	  0.400461	  0.073004	  0.819195	  0.000000	  0.000000	  0.000000	  0.000000	
4.605	  0.861832	  0.400691	  0.267404	  0.184949	  0.165881	  0.217302	  0.511648	  0.512439	  0.747705	  0.402348	  0.073279	  0.820775	  0.000000	  0.000000	  0.000000	  0.000000	
4.6055	  0.863374	  0.401934	  0.268548	  0.185564	  0.164950	  0.218063	  0.510995	  0.512970	  0.747654	  0.404239	  0.073544	  0.822255	  0.000000	  0.000000	  0.000000	  0.000000	
4.606	  0.864767	  0.403140	  0.269652	  0.186185	  0.164034	  0.218812	  0.510469	  0.513533	  0.747570	  0.406134	  0.073798	  0.823633	  0.000000	  0.000000	  0.000000	  0.000000	
4.6065	  0.866008	  0.404309	  0.270716	  0.186811	  0.163131	  0.219547	  0.510072	  0.514126	  0.747457	  0.408032	  0.074041	  0.824908	  0.000000	  0.000000	  0.000000	  0.000000	
4.607	  0.867097	  0.405440	  0.271739	  0.187442	  0.162242	  0.220268	  0.509806	  0.514749	  0.747314	  0.409933	  0.074274	  0.826079	  0.000000	  0.000000	  0.000000	  0.000000	
4.6075	  0.868034	  0.406534	  0.272722	  0.188077	  0.161368	  0.220974	  0.509670	  0.515400	  0.747143	  0.411835	  0.074495	  0.827145	  0.000000	  0.000000	  0.000000	  0.000000	
4.608	  0.868817	  0.407590	  0.273664	  0.188714	  0.160507	  0.221666	  0.509666	  0.516078	  0.746946	  0.413737	  0.074706	  0.828104	  0.000000	  0.000000	  0.000000	  0.000000	
4.6085	  0.869446	  0.408608	  0.274565	  0.189353	  0.159661	  0.222342	  0.509796	  0.516782	  0.746723	  0.415639	  0.074906	  0.828957	  0.000000	  0.000000	  0.000000	  0.000000	
4.609	  0.869920	  0.409588	  0.275425	  0.189993	  0.158829	  0.223004	  0.510059	  0.517510	  0.746477	  0.417539	  0.075094	  0.829703	  0.000000	  0.000000	  0.000000	  0.000000	
4.6095	  0.870238	  0.410529	  0.276245	  0.190633	  0.158012	  0.223649	  0.510456	  0.518261	  0.746209	  0.419437	  0.075271	  0.830341	  0.000000	  0.000000	  0.000000	  0.000000	
4.61	  0.870399	  0.411432	  0.277023	  0.191273	  0.157208	  0.224279	  0.510988	  0.519034	  0.745919	  0.421332	  0.075437	  0.830871	  0.000000	  0.000000	  0.000000	  0.000000	
4.6105	  0.870404	  0.412296	  0.277760	  0.191910	  0.156419	  0.224892	  0.511654	  0.519827	  0.745609	  0.423223	  0.075592	  0.831293	  0.000000	  0.000000	  0.000000	  0.000000	
4.611	  0.870251	  0.413121	  0.278455	  0.192545	  0.155644	  0.225489	  0.512456	  0.520641	  0.745280	  0.425110	  0.075734	  0.831605	  0.000000	  0.000000	  0.000000	  0.000000	
4.6115	  0.869942	  0.413907	  0.279108	  0.193177	  0.154883	  0.226069	  0.513393	  0.521473	  0.744931	  0.426991	  0.075865	  0.831808	  0.000000	  0.000000	  0.000000	  0.000000	
